<svg xmlns="http://www.w3.org/2000/svg" width="32" height="32" viewBox="0 0 32 32">
  <rect width="32" height="32" rx="5.76" fill="#12151A"/>
  <g transform="translate(3.84,3.84) scale(0.020267)">
    <path fill="none" stroke="#C8884A" stroke-linecap="round" stroke-linejoin="round" stroke-width="49.3"
      d="M1131.5,582.5 C1130.56,584.79 1128.68,586.32 1127,588 C973.33,741.67 819.66,895.32 666.07,1049.07 C662.79,1052.35 659.51,1053.4 655.01,1053.62 C617.51,1055.4 580,1054.17 542.5,1054.44 C532.34,1054.51 522.17,1053.77 512,1053.56 C510.33,1053.53 509.12,1052.93 508.02,1051.98 C506.6,1050.74 505.33,1049.33 504,1048 C351,895 198,742 45.01,589 C43,586.98 40.67,585.23 39.37,582.21 C46.65,573.68 55.13,566.13 63.02,558.02 C64.53,556.47 66.38,556.56 67.99,558.01 C69.38,559.28 70.67,560.67 72,562 C215.33,705.33 358.69,848.64 501.9,992.1 C506.66,996.87 511.41,998.66 518,998.62 C564.17,998.39 610.33,998.45 656.5,998.58 C660.61,998.59 663.86,997.59 666.51,994.51 C667.28,993.62 668.17,992.83 669,992 C812.33,848.67 955.67,705.33 1099,562 C1106,555 1106,555 1113,562 C1117.83,566.83 1122.68,571.66 1127.49,576.51 C1129.11,578.13 1131.01,579.55 1131.5,582Z"/>
    <path fill="none" stroke="#C8884A" stroke-linecap="round" stroke-linejoin="round" stroke-width="74.0"
      d="M1087.5,543 C1087.01,540.55 1085.11,539.12 1083.5,537.5 C1009.5,463.5 935.65,389.35 861.36,315.64 C847.48,301.87 833.73,287.93 819.47,274.54 C784.66,241.85 750.3,208.61 711.49,180.51 C690.65,165.42 668.59,152.47 643.96,144.62 C631.71,140.72 619.02,138.33 606,138.48 C594.83,138.6 583.68,138.08 572.5,138.17 C547.13,138.37 523.52,144.21 501,155.48 C477.47,167.23 456.29,182.46 436.01,199.02 C418.44,213.36 401.57,228.5 384.93,243.93 C369.71,258.04 354.82,272.48 339.96,286.96 C255.39,369.39 172.82,453.82 89.01,537.01 C87,539.01 84.67,540.77 83.51,543.46 C84.42,545.81 86.32,547.32 88,549 C226.67,687.67 365.35,826.32 503.93,965.07 C507.21,968.35 510.48,969.41 514.99,969.62 C553.16,971.42 591.33,970.16 629.5,970.44 C639.66,970.51 649.83,969.77 660,969.56 C661.67,969.53 662.88,968.93 663.98,967.98 C665.4,966.74 666.67,965.33 668,964 C806,826 944,688 1082,550 C1084.01,547.98 1086.27,546.18 1087.5,543.5Z"/>
  </g>
</svg>